<svg width="20" height="20" viewBox="0 0 20 20" fill="none" xmlns="http://www.w3.org/2000/svg">
<path d="M14.7211 3.73139C13.47 2.40934 11.7733 1.66663 10.0041 1.66663C8.23493 1.66663 6.5382 2.40934 5.28719 3.73139C4.03618 5.05343 3.33337 6.84651 3.33337 8.71617C3.33337 10.5858 4.03618 12.3789 5.28719 13.7009L9.43023 18.0875C9.50331 18.1654 9.59026 18.2272 9.68606 18.2694C9.78186 18.3116 9.88462 18.3333 9.9884 18.3333C10.0922 18.3333 10.1949 18.3116 10.2907 18.2694C10.3865 18.2272 10.4735 18.1654 10.5466 18.0875L14.7211 13.6594C15.9668 12.3429 16.6667 10.5573 16.6667 8.6954C16.6667 6.83354 15.9668 5.04793 14.7211 3.73139ZM13.5969 12.4714L10.0041 16.2847L6.41139 12.4714C5.70161 11.7206 5.21838 10.7643 5.0228 9.72333C4.82722 8.68238 4.92807 7.60352 5.31259 6.62312C5.69711 5.64273 6.34804 4.80482 7.18311 4.21531C8.01817 3.6258 8.99988 3.31116 10.0041 3.31116C11.0084 3.31116 11.9901 3.6258 12.8251 4.21531C13.6602 4.80482 14.3111 5.64273 14.6957 6.62312C15.0802 7.60352 15.181 8.68238 14.9854 9.72333C14.7899 10.7643 14.3066 11.7206 13.5969 12.4714ZM7.64566 6.16562C7.01101 6.83838 6.65463 7.74959 6.65463 8.69955C6.65463 9.64951 7.01101 10.5607 7.64566 11.2335C8.11716 11.7326 8.71765 12.0735 9.37178 12.2133C10.0259 12.3532 10.7046 12.2858 11.3226 12.0195C11.9406 11.7533 12.4704 11.3002 12.8457 10.7169C13.2209 10.1337 13.4248 9.44633 13.4318 8.74109C13.4353 8.2702 13.3495 7.80334 13.1793 7.36811C13.0092 6.93288 12.7582 6.53811 12.4412 6.20716C12.1296 5.87034 11.7581 5.60196 11.348 5.41746C10.9379 5.23296 10.4973 5.136 10.0516 5.13213C9.6059 5.12827 9.16388 5.2176 8.75097 5.39496C8.33806 5.57233 7.96242 5.83424 7.64566 6.16562ZM11.3327 10.0537C11.0348 10.3734 10.6411 10.5737 10.2188 10.6206C9.79661 10.6674 9.3721 10.5577 9.0179 10.3104C8.66369 10.0631 8.40178 9.69338 8.27695 9.26456C8.15211 8.83574 8.17211 8.37441 8.33351 7.95944C8.49491 7.54447 8.7877 7.20164 9.16182 6.98955C9.53594 6.77747 9.96816 6.7093 10.3846 6.79671C10.801 6.88411 11.1757 7.12167 11.4448 7.46875C11.7138 7.81583 11.8604 8.25089 11.8594 8.69955C11.848 9.21238 11.6444 9.69944 11.2934 10.0537H11.3327Z" fill="#5B5B5B"/>
</svg>
