<svg width="82" height="31" viewBox="0 0 82 31" fill="none" xmlns="http://www.w3.org/2000/svg">
<g clip-path="url(#clip0_1804_4460)">
<path d="M34.0189 16.3105V29.2304H30.7331V27.3097L30.5117 27.6307C30.1054 28.2163 29.5573 28.6894 28.9185 29.0057C28.2551 29.3374 27.4258 29.5099 26.4397 29.5099C24.9859 29.5099 23.8323 29.0953 23.0113 28.2718C22.1903 27.4482 21.7673 26.1454 21.7673 24.3939V16.3105H25.2505V23.8341C25.2505 25.6237 26.035 26.5318 27.5833 26.5318C28.4956 26.5318 29.2212 26.2267 29.7462 25.6196C30.2712 25.0125 30.5316 24.1476 30.5316 23.0213V16.3088L34.0189 16.3105Z" fill="#3993DD"/>
<path d="M40.1608 21.4075H36.6776V29.2313H40.1608V21.4075Z" fill="#3993DD"/>
<path d="M40.4403 17.9542C40.4403 18.5231 40.2603 18.9751 39.8904 19.3375C39.5206 19.6999 39.0238 19.8782 38.4059 19.8782C37.7881 19.8782 37.2955 19.6958 36.9372 19.3383C36.579 18.9809 36.3973 18.5148 36.3973 17.9542C36.3973 17.3936 36.5798 16.9275 36.9372 16.5692C37.2947 16.211 37.7889 16.031 38.4059 16.031C39.023 16.031 39.5222 16.2118 39.8904 16.5701C40.2586 16.9283 40.4403 17.3845 40.4403 17.9542Z" fill="#3993DD"/>
<path d="M52.9023 10.7673V18.033L52.685 17.7485C52.262 17.204 51.7099 16.7736 51.0787 16.4963C50.4077 16.1878 49.6232 16.031 48.7499 16.031C47.9116 16.0241 47.0802 16.1827 46.3034 16.4979C45.5655 16.801 44.8979 17.2527 44.3421 17.8248C43.7657 18.4318 43.3217 19.152 43.0384 19.9396C42.7274 20.7689 42.5707 21.7218 42.5707 22.7667C42.5707 23.8117 42.7274 24.7629 43.0384 25.5947C43.3222 26.3819 43.7661 27.1017 44.3421 27.7086C44.8976 28.2812 45.5653 28.733 46.3034 29.0356C47.0801 29.3512 47.9116 29.5099 48.7499 29.5025C49.697 29.5025 50.5305 29.3242 51.2296 28.97C51.8939 28.6453 52.4617 28.1524 52.8766 27.5403L53.0989 27.2086V29.2222H56.4161V10.7673H52.9023ZM52.0987 25.5143C51.4527 26.1885 50.6059 26.5318 49.5892 26.5318C48.5724 26.5318 47.7265 26.1885 47.0805 25.5143C46.4345 24.84 46.1094 23.9187 46.1094 22.7709C46.1094 21.6231 46.4361 20.6976 47.0805 20.0275C47.7249 19.3574 48.5733 19.0108 49.5892 19.0108C50.6051 19.0108 51.4527 19.3524 52.0987 20.0275C52.7447 20.7026 53.0698 21.6248 53.0698 22.7709C53.0698 23.917 52.7439 24.8409 52.0987 25.5143Z" fill="#3993DD"/>
<path d="M71.3531 19.3906C71.0446 18.7117 70.5967 18.1053 70.0386 17.6109C69.4364 17.0894 68.7364 16.693 67.9794 16.4449C67.1154 16.1612 66.2108 16.0211 65.3015 16.0302C64.3896 16.0233 63.484 16.1818 62.6286 16.4979C61.8268 16.7976 61.0935 17.2557 60.4724 17.8447C59.8494 18.4468 59.3583 19.1718 59.0302 19.9736C58.6723 20.8619 58.4947 21.8125 58.5077 22.7701C58.5077 23.8863 58.701 24.8774 59.0883 25.7158C59.4452 26.5209 59.9746 27.2377 60.6391 27.8156C61.3121 28.387 62.093 28.8173 62.9355 29.0812C63.8472 29.3703 64.7987 29.5147 65.7552 29.5091C67.8475 29.5091 69.6903 28.9526 71.2287 27.8505L70.1771 25.4645C69.608 25.826 69.0009 26.1238 68.3667 26.3527C67.6523 26.6041 66.8997 26.7293 66.1425 26.7226C64.9814 26.7226 64.0418 26.4738 63.3427 25.9878C62.6436 25.5018 62.2082 24.7438 62.0746 23.7628L62.0556 23.6259H71.3622C71.5074 23.3368 71.6147 23.0302 71.6815 22.7137C71.7653 22.365 71.811 22.0082 71.8175 21.6497C71.8256 20.8721 71.6672 20.1019 71.3531 19.3906ZM68.2166 21.3254L68.19 21.4083H62.0464L62.0755 21.2649C62.2124 20.5211 62.6165 19.853 63.2116 19.3864C63.8087 18.9146 64.5502 18.6749 65.4143 18.6749C66.3556 18.6749 67.0729 18.893 67.539 19.3226C68.0051 19.7522 68.2514 20.3219 68.2514 21.0078C68.2552 21.1148 68.2435 21.2218 68.2166 21.3254Z" fill="#3993DD"/>
<path d="M81.8937 16.2682V19.5979C81.6805 19.5556 81.4641 19.515 81.2485 19.4868C80.9736 19.4489 80.6965 19.43 80.4191 19.4304C80.0246 19.4228 79.6331 19.5012 79.2719 19.6602C78.9107 19.8191 78.5885 20.0549 78.3276 20.3509C77.7778 20.9597 77.4983 21.8487 77.4983 22.994V29.2305H74.0151V16.3105H77.3026V18.7412L77.5315 18.2586C77.8914 17.5022 78.3691 16.9541 78.9504 16.6315C79.5462 16.305 80.2158 16.1369 80.8952 16.143C81.3463 16.143 81.6814 16.1853 81.8937 16.2682Z" fill="#3993DD"/>
<path d="M11.0242 13.9343C12.4578 13.7016 13.4313 12.3508 13.1986 10.9171C12.9659 9.48352 11.6151 8.51 10.1815 8.74271C8.74787 8.97541 7.77434 10.3262 8.00705 11.7599C8.23976 13.1935 9.59058 14.167 11.0242 13.9343Z" fill="#E36161"/>
<path d="M21.0914 11.0484V10.4049C20.947 7.67853 19.7462 5.11566 17.7437 3.25991C15.7412 1.40415 13.0945 0.401489 10.365 0.464601C7.63559 0.527712 5.0381 1.65163 3.12351 3.59796C1.20891 5.54429 0.127849 8.15992 0.109619 10.89C0.109619 10.9473 0.109619 11.0053 0.109619 11.0634C0.109619 11.0634 0.109619 11.07 0.109619 11.0824C0.12587 11.6001 0.181317 12.1157 0.275483 12.625C0.276672 12.6313 0.276672 12.6377 0.275483 12.644C0.666921 15.521 1.89846 22.6398 5.57068 27.7708C6.14332 28.5723 6.89926 29.2253 7.77548 29.6754C8.65169 30.1255 9.62281 30.3596 10.6079 30.3582C11.5929 30.3568 12.5634 30.12 13.4383 29.6675C14.3133 29.2149 15.0674 28.5598 15.6378 27.7567C18.1257 24.2736 19.4916 19.4229 20.2347 16.3121H10.5988V19.7953H15.6867C15.686 19.7991 15.686 19.803 15.6867 19.8069C15.1891 21.2391 14.563 23.5844 13.7793 25.0556C13.4864 25.6058 13.0497 26.0661 12.5157 26.3874C11.9817 26.7087 11.3705 26.879 10.7473 26.8801H10.4653C9.84553 26.8805 9.23722 26.7129 8.70499 26.3954C8.17275 26.0778 7.73646 25.622 7.44245 25.0764C4.98767 20.4944 4.1003 14.7978 3.79345 12.4707L3.64749 11.0758C3.65329 11.1538 3.68813 11.6563 3.79345 12.4707C3.70952 12.0171 3.66072 11.5577 3.64749 11.0965V11.0625C3.64749 11.0045 3.64749 10.9473 3.64749 10.8892C3.66518 9.09565 4.37399 7.37803 5.62634 6.09397C6.87868 4.80992 8.57805 4.0584 10.3706 3.99588C12.1632 3.93336 13.9108 4.56466 15.2495 5.75834C16.5883 6.95203 17.415 8.61609 17.5576 10.4041V11.0476L21.0914 11.0484Z" fill="#E36161"/>
</g>
<defs>
<clipPath id="clip0_1804_4460">
<rect width="82" height="30.75" fill="white"/>
</clipPath>
</defs>
</svg>
